<svg width="25" height="25" viewBox="0 0 25 25" fill="none" xmlns="http://www.w3.org/2000/svg">
<g clip-path="url(#clip0)">
<path d="M15.0587 7.29827C14.8498 7.24605 14.3798 7.24605 13.8054 7.19383C14.3276 8.49927 13.701 9.96136 12.4478 10.5358C11.1946 11.1101 9.68025 10.4313 9.10586 9.1781C8.89699 8.65592 8.84477 8.08153 9.00142 7.55936C6.18168 8.13375 4.14519 9.33475 2.78754 11.2146L22.9435 14.922L15.0587 7.29827Z" fill="#FA9E15"/>
<path d="M11.5079 9.96136C12.3442 9.96136 13.0222 9.28338 13.0222 8.44705C13.0222 7.61072 12.3442 6.93274 11.5079 6.93274C10.6716 6.93274 9.99359 7.61072 9.99359 8.44705C9.99359 9.28338 10.6716 9.96136 11.5079 9.96136Z" fill="#FDE7AE"/>
<path d="M2.4743 20.4049L24.0924 24.3734V21.7625L2.4743 17.8984V20.4049Z" fill="#FA9E15"/>
<path d="M2.4743 12.1545V14.191L24.0924 18.1073V16.123L18.5051 15.0787L2.4743 12.1545Z" fill="#FA9E15"/>
<path d="M2.52643 17.1674L24.1445 21.0837V19.5172L2.52643 15.6009V17.1674Z" fill="#FDE7AE"/>
<path d="M24.3012 14.9742V14.922C24.3012 14.8698 24.249 14.8698 24.249 14.8176L24.1968 14.7654L14.9021 5.88838C14.8498 5.83617 14.7454 5.78395 14.641 5.73173C13.8577 5.6273 13.0222 5.57508 12.239 5.57508C11.9257 5.31399 11.5601 5.15734 11.1946 5.10512C11.0902 4.16521 11.1946 1.97207 13.0222 1.03215C13.2833 0.875501 13.3877 0.562195 13.2311 0.301108C13.0744 0.0400199 12.7611 -0.0644152 12.5001 0.0400199C10.1503 1.29324 10.0458 3.90412 10.098 5.0529C9.62809 5.15734 9.21035 5.36621 8.84482 5.73173C5.03294 6.30613 2.21319 8.0293 0.698885 10.6924V10.7446C0.698885 10.7968 0.646667 10.8491 0.646667 10.9535V20.3004C0.646667 20.5615 0.80332 20.7704 1.06441 20.8226L23.7268 25H23.8313C24.1446 25 24.3534 24.7911 24.3534 24.4778V15.0787C24.3534 15.0787 24.3534 15.0787 24.3534 15.0265L24.3012 14.9742ZM10.6724 6.04504C11.5079 6.04504 12.1867 6.72387 12.1867 7.55935C12.1867 8.39483 11.5079 9.07366 10.6724 9.07366C9.83696 9.07366 9.15813 8.39483 9.15813 7.55935C9.15813 6.72387 9.83696 6.04504 10.6724 6.04504ZM8.21821 6.93273C8.16599 7.14161 8.11378 7.35048 8.11378 7.55935C8.06156 8.96922 9.15813 10.118 10.568 10.1702C11.9779 10.2224 13.1267 9.12587 13.1789 7.716C13.1789 7.35048 13.1267 6.98495 12.97 6.61943C13.5444 6.67165 14.0144 6.72387 14.2232 6.72387L22.1603 14.2954L2.05654 10.5357C3.36198 8.70813 5.45068 7.45491 8.21821 6.93273ZM23.3091 23.799L1.69102 19.8305V17.324L23.3091 21.2403V23.799ZM23.3091 20.1438L1.69102 16.2275V14.6609L23.3091 18.5772V20.1438ZM23.3091 17.5329L1.69102 13.6166V11.5279L17.7218 14.5043L23.3091 15.5486V17.5329Z" fill="#873C1B"/>
</g>
<defs>
<clipPath id="clip0">
<rect width="25" height="25" fill="white"/>
</clipPath>
</defs>
</svg>
