<svg width="25" height="25" viewBox="0 0 25 25" fill="none" xmlns="http://www.w3.org/2000/svg">
<g clip-path="url(#clip0)">
<path d="M24.3644 14.0708C24.177 14.0984 23.9854 14.1129 23.7903 14.1129C21.9943 14.1129 20.4743 12.9381 19.9529 11.3153C19.8638 11.0379 19.6373 10.8243 19.351 10.7698C16.3684 10.202 14.1129 7.58346 14.1129 4.43551C14.1129 3.11339 14.512 1.88532 15.1947 0.862418C15.357 0.619205 15.2215 0.295279 14.9347 0.238492C14.1472 0.0825348 13.3333 1.52588e-05 12.5 1.52588e-05C5.59644 6.40869e-05 0 5.59645 0 12.5C0 19.4035 5.59644 25 12.5 25C18.7218 25 23.8666 20.4711 24.8342 14.5211C24.8781 14.2511 24.635 14.0311 24.3644 14.0708Z" fill="#F5B97D"/>
<path d="M6.85507 10.0806C7.74579 10.0806 8.46786 9.35851 8.46786 8.46779C8.46786 7.57707 7.74579 6.855 6.85507 6.855C5.96435 6.855 5.24228 7.57707 5.24228 8.46779C5.24228 9.35851 5.96435 10.0806 6.85507 10.0806Z" fill="#CD916E"/>
<path d="M7.66124 17.7419C8.32932 17.7419 8.8709 17.2003 8.8709 16.5322C8.8709 15.8642 8.32932 15.3226 7.66124 15.3226C6.99315 15.3226 6.45157 15.8642 6.45157 16.5322C6.45157 17.2003 6.99315 17.7419 7.66124 17.7419Z" fill="#CD916E"/>
<path d="M19.7585 16.5323C19.6105 16.5323 19.4683 16.4508 19.3975 16.3094L18.9942 15.5029C18.8946 15.3037 18.9753 15.0615 19.1746 14.9619C19.3735 14.8627 19.6156 14.943 19.7157 15.1422L20.1189 15.9487C20.2185 16.148 20.1378 16.3901 19.9385 16.4898C19.8806 16.5185 19.8192 16.5323 19.7585 16.5323Z" fill="#A06E50"/>
<path d="M15.3231 14.1129C15.175 14.1129 15.0328 14.0314 14.962 13.89C14.8624 13.6908 14.9431 13.4486 15.1424 13.349L15.9488 12.9457C16.1481 12.8469 16.3898 12.9268 16.4899 13.1261C16.5895 13.3254 16.5088 13.5675 16.3095 13.6672L15.503 14.0704C15.4451 14.0992 15.3837 14.1129 15.3231 14.1129Z" fill="#B67F5F"/>
<path d="M4.43601 13.3065C4.28796 13.3065 4.14577 13.225 4.07492 13.0836L3.6717 12.2771C3.57209 12.0779 3.6528 11.8357 3.85207 11.7361C4.05095 11.6372 4.29309 11.7172 4.39314 11.9164L4.79636 12.7229C4.89597 12.9222 4.81526 13.1643 4.61599 13.264C4.55808 13.2927 4.49665 13.3065 4.43601 13.3065Z" fill="#B67F5F"/>
<path d="M9.67793 20.5645C9.52988 20.5645 9.38769 20.483 9.31684 20.3416C9.21723 20.1424 9.29795 19.9002 9.49721 19.8006L10.3037 19.3973C10.5029 19.2981 10.7447 19.3784 10.8447 19.5777C10.9443 19.777 10.8636 20.0191 10.6644 20.1188L9.85791 20.522C9.8 20.5508 9.73857 20.5645 9.67793 20.5645Z" fill="#B67F5F"/>
<path d="M10.484 4.83875C10.3808 4.83875 10.2777 4.79939 10.1989 4.72063L9.79569 4.31741C9.63817 4.15989 9.63817 3.90471 9.79569 3.74724C9.95321 3.58972 10.2084 3.58972 10.3659 3.74724L10.7691 4.15042C10.9266 4.30794 10.9266 4.56311 10.7691 4.72058C10.6904 4.79939 10.5872 4.83875 10.484 4.83875Z" fill="#B67F5F"/>
<path d="M9.67753 14.1129C9.57436 14.1129 9.47118 14.0736 9.39242 13.9948L8.9892 13.5916C8.83168 13.434 8.83168 13.1789 8.9892 13.0214C9.14672 12.8639 9.4019 12.8639 9.55937 13.0214L9.96259 13.4246C10.1201 13.5821 10.1201 13.8373 9.96259 13.9948C9.88383 14.0736 9.7807 14.1129 9.67753 14.1129Z" fill="#A06E50"/>
<path d="M14.113 22.5807C13.8901 22.5807 13.7097 22.4003 13.7097 22.1774V21.7742C13.7097 21.5513 13.8901 21.371 14.113 21.371C14.3358 21.371 14.5162 21.5514 14.5162 21.7742V22.1774C14.5162 22.4003 14.3359 22.5807 14.113 22.5807Z" fill="#A06E50"/>
<path d="M11.6937 7.25812C11.5905 7.25812 11.4873 7.21876 11.4085 7.14C11.251 6.98248 11.251 6.72731 11.4085 6.56984L11.8118 6.16662C11.9693 6.0091 12.2245 6.0091 12.3819 6.16662C12.5395 6.32414 12.5395 6.57931 12.3819 6.73678L11.9787 7.14C11.9 7.21871 11.7968 7.25812 11.6937 7.25812Z" fill="#A06E50"/>
<path d="M17.6925 3.26834L17.5769 3.96243C17.4818 4.53289 17.8038 5.0909 18.3453 5.29398L19.3695 5.67806C20.046 5.93172 20.7926 5.53973 20.9678 4.8388L21.3329 3.37855C21.5604 2.46844 20.7103 1.65692 19.8117 1.9265L18.5381 2.30858C18.0963 2.44105 17.7684 2.81331 17.6925 3.26834Z" fill="#F5B97D"/>
<path d="M21.7743 7.66136L21.2873 7.90486C20.9054 8.09583 20.7385 8.5514 20.9067 8.94383L21.2985 9.858C21.5358 10.4115 22.2738 10.5192 22.6593 10.0566L23.2896 9.30023C23.5851 8.94559 23.5233 8.41575 23.154 8.1388L22.6189 7.73748C22.3745 7.55423 22.0475 7.52473 21.7743 7.66136Z" fill="#F5B97D"/>
<path d="M24.1935 6.04867C24.6389 6.04867 24.9999 5.68761 24.9999 5.24222C24.9999 4.79683 24.6389 4.43578 24.1935 4.43578C23.7481 4.43578 23.387 4.79683 23.387 5.24222C23.387 5.68761 23.7481 6.04867 24.1935 6.04867Z" fill="#F5B97D"/>
<path d="M14.0122 23.4879C7.10864 23.4879 1.5122 17.8915 1.5122 10.9879C1.5122 7.92113 2.61684 5.11229 4.4496 2.93744C1.7287 5.23046 9.15527e-05 8.66327 9.15527e-05 12.5C9.15527e-05 19.4036 5.59653 25 12.5001 25C16.3393 25 19.7682 23.2757 22.0588 20.5571C19.8864 22.3868 17.0801 23.4879 14.0122 23.4879Z" fill="#E3AA75"/>
<path d="M19.5489 4.74216C18.8725 4.4885 18.4703 3.79157 18.589 3.07907L18.7269 2.25188L18.5382 2.30852C18.0964 2.44109 17.7684 2.81335 17.6925 3.26833L17.5769 3.96242C17.4818 4.53288 17.8038 5.09089 18.3453 5.29397L19.3695 5.67805C19.9127 5.88171 20.5006 5.66965 20.8021 5.21516L19.5489 4.74216Z" fill="#E3AA75"/>
<path d="M24.6473 5.59479C24.2019 5.59479 23.8408 5.2337 23.8408 4.78834C23.8408 4.68385 23.8609 4.58336 23.8971 4.49176C23.5981 4.60978 23.3872 4.90109 23.3872 5.242C23.3872 5.68737 23.7483 6.04845 24.1937 6.04845C24.5346 6.04845 24.8258 5.83756 24.9438 5.53859C24.8522 5.57472 24.7518 5.59479 24.6473 5.59479Z" fill="#E3AA75"/>
<path d="M22.1589 9.33835L21.7151 8.30299C21.6318 8.10856 21.6248 7.90148 21.6753 7.71075L21.2872 7.9048C20.9053 8.09577 20.7385 8.55133 20.9067 8.94382L21.2985 9.85798C21.5357 10.4114 22.2738 10.5192 22.6592 10.0566L22.8159 9.86862C22.5388 9.81198 22.2854 9.63351 22.1589 9.33835Z" fill="#E3AA75"/>
<path d="M7.7118 9.22385C6.82103 9.22385 6.09892 8.50173 6.09892 7.61096C6.09892 7.38786 6.14428 7.17541 6.22616 6.98215C5.6478 7.22726 5.24203 7.80007 5.24203 8.46779C5.24203 9.35856 5.96415 10.0807 6.85492 10.0807C7.52259 10.0807 8.09544 9.67492 8.34051 9.09655C8.1473 9.17844 7.93485 9.22385 7.7118 9.22385Z" fill="#B67F5F"/>
<path d="M8.29145 17.1119C7.62338 17.1119 7.08178 16.5703 7.08178 15.9023C7.08178 15.7317 7.11791 15.5697 7.18168 15.4225C6.75253 15.6084 6.45175 16.0348 6.45175 16.5323C6.45175 17.2004 6.99335 17.742 7.66142 17.742C8.15888 17.742 8.58534 17.4412 8.77118 17.012C8.62397 17.0758 8.46205 17.1119 8.29145 17.1119Z" fill="#B67F5F"/>
<path d="M15.3228 19.355C16.2136 19.355 16.9356 18.6329 16.9356 17.7422C16.9356 16.8515 16.2136 16.1294 15.3228 16.1294C14.4321 16.1294 13.7101 16.8515 13.7101 17.7422C13.7101 18.6329 14.4321 19.355 15.3228 19.355Z" fill="#CD916E"/>
<path d="M16.1796 18.498C15.2888 18.498 14.5667 17.7759 14.5667 16.8851C14.5667 16.662 14.612 16.4496 14.6939 16.2563C14.1155 16.5014 13.7098 17.0742 13.7098 17.742C13.7098 18.6327 14.4319 19.3549 15.3227 19.3549C15.9903 19.3549 16.5632 18.9491 16.8083 18.3707C16.6151 18.4526 16.4026 18.498 16.1796 18.498Z" fill="#B67F5F"/>
<path d="M12.0802 11.2903C12.5256 11.2903 12.8866 10.9293 12.8866 10.4839C12.8866 10.0385 12.5256 9.67746 12.0802 9.67746C11.6348 9.67746 11.2737 10.0385 11.2737 10.4839C11.2737 10.9293 11.6348 11.2903 12.0802 11.2903Z" fill="#CD916E"/>
<path d="M12.5085 10.8619C12.0631 10.8619 11.702 10.5008 11.702 10.0555C11.702 9.94391 11.7247 9.8377 11.7657 9.74107C11.4765 9.86363 11.2736 10.1501 11.2736 10.4839C11.2736 10.9293 11.6347 11.2903 12.0801 11.2903C12.4139 11.2903 12.7003 11.0875 12.8229 10.7983C12.7263 10.8392 12.62 10.8619 12.5085 10.8619Z" fill="#B67F5F"/>
</g>
<defs>
<clipPath id="clip0">
<rect width="25" height="25" fill="white"/>
</clipPath>
</defs>
</svg>
