<svg width="25" height="25" viewBox="0 0 25 25" fill="none" xmlns="http://www.w3.org/2000/svg">
<g clip-path="url(#clip0)">
<path d="M12.4998 3.12503C5.59635 3.12503 0 7.32234 0 12.5C0 17.6777 5.59635 21.8748 12.4998 21.8748C19.4035 21.8748 24.9998 17.6777 24.9998 12.5C24.9998 7.32234 19.4035 3.12503 12.4998 3.12503V3.12503ZM12.4998 12.5C10.0693 12.5 8.09879 11.5238 8.09879 10.3197C8.09879 9.11563 10.0693 8.13945 12.4998 8.13945C14.9305 8.13945 16.901 9.11563 16.901 10.3197C16.901 11.5238 14.9305 12.5 12.4998 12.5Z" fill="url(#paint0_radial)"/>
<path d="M24.9477 11.64C24.3792 6.94849 19.2017 3.25587 12.8391 3.12846C12.7264 3.12693 12.6135 3.12521 12.5002 3.12521C12.3987 3.12521 12.2972 3.12579 12.1958 3.12788C5.81493 3.24252 0.619499 6.94239 0.052063 11.6444C0.0581665 11.6848 0.0644607 11.7249 0.071518 11.7647C0.0780029 11.8025 0.0844879 11.8405 0.0921173 11.8782C0.0926896 11.8819 0.0932617 11.8851 0.0942154 11.8889C0.101845 11.9278 0.109856 11.9662 0.118629 12.0045C0.127213 12.044 0.136368 12.0833 0.146095 12.1233C0.155823 12.1611 0.16555 12.1989 0.17585 12.2372C0.187103 12.2809 0.200073 12.3245 0.213043 12.3684C0.235741 12.4434 0.259964 12.518 0.285904 12.5923C0.312988 12.6696 0.341599 12.7468 0.372307 12.8233C0.403206 12.8996 0.43544 12.9755 0.469582 13.0512C0.469963 13.0533 0.471108 13.0554 0.472252 13.0577C0.488846 13.0934 0.50563 13.1289 0.522415 13.1645C0.538628 13.1975 0.55484 13.2309 0.571052 13.2639C0.574295 13.2714 0.577919 13.2784 0.582306 13.2855C0.921814 13.9538 1.4017 14.5832 2.00042 15.1604L2.02197 15.1825C2.02522 15.1858 2.02846 15.1884 2.0317 15.1917L8.12377 21.2837C9.48581 21.6658 10.96 21.8748 12.5002 21.8748C19.4035 21.8748 25 17.6775 25 12.5C25 12.2101 24.9823 11.9234 24.9477 11.64ZM8.09898 9.91805C8.09898 8.49173 10.0693 7.33549 12.5002 7.33549C14.9305 7.33549 16.901 8.49173 16.901 9.91805C16.901 9.99148 16.8955 10.0638 16.8854 10.1355C16.8955 10.1965 16.901 10.2576 16.901 10.3195C16.901 11.524 14.9305 12.5 12.5002 12.5C10.0693 12.5 8.09898 11.524 8.09898 10.3195C8.09898 10.2576 8.10432 10.1965 8.11462 10.1355C8.10432 10.0638 8.09898 9.99148 8.09898 9.91805Z" fill="url(#paint1_linear)"/>
<path d="M25 12.5C25 12.2101 24.9822 11.9234 24.9477 11.64C24.8913 11.1746 24.7888 10.7191 24.645 10.2759C23.348 14.2767 18.6294 17.2728 12.9444 17.4219V19.9816C12.9444 20.3552 13.0956 20.693 13.3402 20.9376L14.1914 21.789C20.2947 21.1697 25 17.2472 25 12.5Z" fill="url(#paint2_linear)"/>
<path d="M25 12.5C25 12.2101 24.9822 11.9234 24.9477 11.64C24.8913 11.1748 24.7888 10.7195 24.6452 10.2764C24.3215 11.2742 23.785 12.2091 23.0739 13.0533C23.0705 13.0575 23.0669 13.0615 23.0635 13.0657C23.0224 13.1144 22.9809 13.1626 22.9387 13.2105C22.9359 13.2137 22.933 13.217 22.9301 13.2202C22.7953 13.373 22.6545 13.5227 22.5082 13.6692C22.5014 13.6761 22.4945 13.683 22.4874 13.6898C22.447 13.7301 22.4064 13.7699 22.365 13.8096C22.3549 13.8195 22.3446 13.8292 22.3343 13.8392C22.2944 13.8773 22.2542 13.9151 22.2133 13.9527C22.2038 13.9616 22.1943 13.9706 22.1845 13.9794C22.1355 14.0244 22.0861 14.069 22.0362 14.1134C22.0356 14.1138 22.035 14.1142 22.0346 14.1148C21.9826 14.1607 21.9299 14.2065 21.8765 14.2517C21.8679 14.259 21.8592 14.2662 21.8504 14.2737C21.8082 14.3093 21.7657 14.3448 21.7228 14.3799C21.7062 14.3936 21.6894 14.407 21.6728 14.4205C21.6371 14.4495 21.6011 14.4783 21.5648 14.5067C21.5458 14.522 21.5267 14.5371 21.5074 14.5519C21.4722 14.5794 21.4367 14.6067 21.401 14.634C21.3817 14.6485 21.3629 14.6631 21.3434 14.6776C21.3024 14.7083 21.2608 14.7391 21.2192 14.7694C21.2055 14.7795 21.192 14.7896 21.178 14.7997C21.1252 14.8379 21.0718 14.8758 21.018 14.9134C20.9942 14.93 20.9699 14.9464 20.9461 14.963C20.9143 14.9847 20.8824 15.0067 20.8504 15.0282C20.8229 15.0469 20.795 15.0652 20.7672 15.0837C20.7384 15.1028 20.7094 15.1217 20.6804 15.1405C20.6508 15.1598 20.6211 15.1791 20.5911 15.1982C20.5641 15.2155 20.5366 15.2327 20.5091 15.2498C20.4777 15.2695 20.4462 15.2893 20.4143 15.309C20.3905 15.3235 20.3665 15.338 20.3424 15.3525C20.272 15.395 20.2011 15.4371 20.1294 15.4785C20.112 15.4886 20.0947 15.4989 20.0771 15.5089C20.039 15.5308 20.0003 15.5523 19.9617 15.5739C19.9404 15.5859 19.9188 15.5979 19.8973 15.6099C19.8583 15.6313 19.8192 15.6525 19.7801 15.6737C19.7592 15.6849 19.7384 15.6962 19.7174 15.7072C19.6766 15.729 19.6358 15.7503 19.5946 15.7717C19.5774 15.7807 19.56 15.7894 19.5429 15.7982C19.3354 15.9046 19.1234 16.0063 18.9073 16.1034C18.8946 16.1091 18.8818 16.1148 18.869 16.1205C18.8198 16.1425 18.7702 16.164 18.7206 16.1856C18.7075 16.1911 18.6941 16.1968 18.6809 16.2026C18.6294 16.2245 18.5776 16.2464 18.5255 16.268C18.5198 16.2703 18.514 16.2728 18.5081 16.275C18.2737 16.3716 18.0347 16.4627 17.7915 16.5482C17.7845 16.5507 17.7774 16.5531 17.7704 16.5556C17.7128 16.5756 17.655 16.5955 17.597 16.6149C17.5899 16.6172 17.5827 16.6197 17.5756 16.622C17.264 16.7259 16.9456 16.8207 16.6212 16.9056C16.6183 16.9064 16.6155 16.9071 16.6126 16.9079V19.3419C16.6384 19.6295 16.7726 19.886 16.9742 20.0703L17.8705 20.9665C22.0863 19.4599 25 16.2356 25 12.5Z" fill="url(#paint3_linear)"/>
<path d="M24.9998 10.9263C24.9998 6.61776 19.4035 3.12502 12.4998 3.12502C5.59635 3.12502 0 6.61776 0 10.9263C0 14.8672 4.68254 18.1258 10.7649 18.6529C10.9846 18.672 11.3392 18.6871 11.6997 18.6983C12.3932 18.7199 12.9444 19.2879 12.9444 19.9816C12.9444 20.7285 13.5498 21.3339 14.2967 21.3339C15.0436 21.3339 15.649 20.7285 15.649 19.9816V18.8765C15.649 18.648 15.8121 18.4519 16.037 18.4105L16.0473 18.4086C16.3387 18.3548 16.6075 18.5784 16.6075 18.8748V19.2402C16.6075 19.8609 17.1106 20.3638 17.7311 20.3638C18.3516 20.3638 18.8547 19.8607 18.8547 19.2402V17.3064C18.8547 16.9604 19.0643 16.6495 19.3842 16.5175C19.3901 16.515 19.396 16.5127 19.4019 16.5102C19.9623 16.2781 20.5782 16.6926 20.5782 17.2991V17.4908C20.5782 18.0634 21.0423 18.5274 21.615 18.5274C22.1876 18.5274 22.6517 18.0634 22.6517 17.4908V16.763C22.6517 16.0143 22.9174 15.2855 23.4171 14.728C24.4249 13.6032 24.9998 12.3066 24.9998 10.9263ZM12.4998 12.5C10.0693 12.5 8.09879 11.344 8.09879 9.91785C8.09879 8.49173 10.0693 7.33568 12.4998 7.33568C14.9305 7.33568 16.901 8.49173 16.901 9.91785C16.901 11.344 14.9305 12.5 12.4998 12.5Z" fill="url(#paint4_radial)"/>
<path d="M5.01669 18.3626C4.936 18.3033 4.82252 18.3207 4.7632 18.4014C4.70388 18.4822 4.72124 18.5957 4.80192 18.655C4.8826 18.7142 4.99609 18.6968 5.0554 18.6161C5.11472 18.5354 5.09737 18.422 5.01669 18.3626Z" fill="#FF931E"/>
<path d="M3.79212 16.955C3.66433 16.861 3.48466 16.8884 3.39062 17.0162C3.29678 17.1442 3.32425 17.3239 3.45204 17.4177C3.57983 17.5116 3.7597 17.4841 3.85354 17.3563C3.94738 17.2285 3.91991 17.0489 3.79212 16.955Z" fill="#FF931E"/>
<path d="M4.00196 17.9117C3.80531 17.7674 3.52875 17.8097 3.38436 18.0063C3.23997 18.2028 3.28213 18.4794 3.47877 18.6238C3.67542 18.7683 3.95199 18.726 4.09637 18.5293C4.24076 18.3327 4.19861 18.0563 4.00196 17.9117Z" fill="#FF931E"/>
<path d="M17.3073 11.488C17.2871 11.4639 17.2621 11.4435 17.2322 11.4286C17.1164 11.3714 16.9762 11.4187 16.919 11.5345L16.2974 12.7909C16.251 12.8843 16.2739 12.9932 16.3454 13.0621L17.2186 13.9353C17.2388 13.9593 17.264 13.9799 17.2938 13.9948C17.4095 14.0518 17.5495 14.0045 17.607 13.8889L18.2287 12.6324C18.2749 12.5389 18.252 12.43 18.1805 12.3613L17.3073 11.488Z" fill="url(#paint5_linear)"/>
<path d="M20.5116 13.4199C20.4416 13.3486 20.3312 13.3269 20.2379 13.3753C20.1233 13.4348 20.0787 13.5758 20.1382 13.6904L20.7836 14.9347C20.7987 14.9635 20.8189 14.988 20.8424 15.0074L21.7157 15.8808C21.7857 15.9521 21.896 15.9737 21.9894 15.9252C22.1039 15.8659 22.1485 15.725 22.0892 15.6103L21.4436 14.366C21.4287 14.337 21.4085 14.3126 21.3848 14.2931L20.5116 13.4199Z" fill="url(#paint6_linear)"/>
<path d="M19.9017 10.0176C19.8706 9.98156 19.8286 9.95447 19.7788 9.94303C19.6531 9.91385 19.5274 9.99205 19.4983 10.1177L19.1813 11.4832C19.1616 11.5677 19.1914 11.6514 19.2505 11.7066L20.1239 12.5799C20.155 12.6158 20.1969 12.6429 20.2467 12.6545C20.3724 12.6835 20.4981 12.6053 20.5271 12.4796L20.8443 11.1141C20.8639 11.0296 20.8342 10.9459 20.775 10.8908L19.9017 10.0176Z" fill="url(#paint7_linear)"/>
<path d="M18.9821 14.6486C18.9686 14.6338 18.9537 14.6196 18.9357 14.6082L17.7549 13.8531C17.6462 13.7835 17.5016 13.8153 17.4322 13.9238C17.3694 14.0221 17.3898 14.1487 17.4742 14.2239L18.3475 15.0971C18.3611 15.1119 18.3759 15.126 18.3939 15.1375L19.5749 15.8928C19.6834 15.9622 19.828 15.9304 19.8974 15.8218C19.9602 15.7236 19.94 15.597 19.8555 15.522L18.9821 14.6486Z" fill="url(#paint8_linear)"/>
<path d="M23.1087 11.2772C23.0408 11.2059 22.9328 11.1819 22.8393 11.2269L21.5752 11.8328C21.4588 11.8887 21.4098 12.0283 21.4655 12.1447C21.4802 12.1752 21.501 12.201 21.5252 12.2216L22.3986 13.0947C22.4665 13.1661 22.5744 13.1899 22.6681 13.1451L23.9321 12.5389C24.0484 12.4832 24.0974 12.3436 24.0417 12.2273C24.0271 12.1968 24.0063 12.171 23.982 12.1504L23.1087 11.2772Z" fill="url(#paint9_linear)"/>
<path d="M16.403 13.1039C16.2874 13.0467 16.2401 12.9065 16.2974 12.7909L16.9192 11.5343C16.9764 11.4187 17.1166 11.3714 17.2322 11.4287C17.3477 11.4859 17.395 11.6261 17.3378 11.7417L16.7162 12.998C16.659 13.1138 16.5188 13.1611 16.403 13.1039Z" fill="url(#paint10_linear)"/>
<path d="M19.2293 6.36236C19.2093 6.33833 19.1841 6.31773 19.1541 6.30304C19.0386 6.24582 18.8984 6.29312 18.8411 6.40871L18.2193 7.66527C18.1732 7.75873 18.1961 7.86764 18.2674 7.9363L19.1408 8.80968C19.161 8.83371 19.186 8.85431 19.2159 8.869C19.3315 8.92622 19.4717 8.87892 19.5289 8.76333L20.1507 7.50677C20.1971 7.41331 20.174 7.3044 20.1027 7.23574L19.2293 6.36236Z" fill="url(#paint11_linear)"/>
<path d="M18.3252 7.97826C18.2097 7.92104 18.1622 7.78085 18.2194 7.66527L18.8412 6.40871C18.8984 6.29312 19.0386 6.24582 19.1542 6.30304C19.27 6.36007 19.3173 6.50045 19.26 6.61604L18.6382 7.87241C18.581 7.98818 18.4408 8.03548 18.3252 7.97826Z" fill="url(#paint12_linear)"/>
<path d="M21.0987 15.0345C20.9841 15.094 20.8431 15.0492 20.7836 14.9347L20.1382 13.6904C20.0787 13.5758 20.1233 13.4348 20.2379 13.3753C20.3524 13.316 20.4935 13.3606 20.5528 13.4751L21.1985 14.7196C21.2578 14.834 21.2132 14.9752 21.0987 15.0345Z" fill="url(#paint13_linear)"/>
<path d="M15.8018 4.3667C15.7318 4.29536 15.6216 4.27362 15.5281 4.32206C15.4137 4.38157 15.3689 4.52253 15.4284 4.63716L16.0738 5.88151C16.0889 5.91032 16.1091 5.93473 16.1328 5.95418L17.0059 6.82756C17.0759 6.8989 17.1862 6.92064 17.2796 6.87219C17.3943 6.81268 17.4389 6.67173 17.3794 6.5571L16.734 5.31274C16.7189 5.28375 16.6987 5.25953 16.6752 5.24007L15.8018 4.3667Z" fill="url(#paint14_linear)"/>
<path d="M16.3889 5.98125C16.2743 6.04076 16.1333 5.99594 16.0738 5.8815L15.4284 4.63714C15.3689 4.52251 15.4137 4.38156 15.5281 4.32205C15.6428 4.26273 15.7837 4.30736 15.843 4.4218L16.4887 5.66635C16.5482 5.78079 16.5034 5.92193 16.3889 5.98125Z" fill="url(#paint15_linear)"/>
<path d="M2.54417 7.91513C2.47417 7.8438 2.36374 7.82224 2.27047 7.87069C2.15584 7.93001 2.11121 8.07096 2.17052 8.18559L2.81616 9.42994C2.83123 9.45894 2.85126 9.48316 2.87491 9.50261L3.74828 10.376C3.81828 10.4473 3.92852 10.4691 4.02179 10.4206C4.13642 10.3611 4.18106 10.2202 4.12174 10.1055L3.4761 8.86117C3.46122 8.83237 3.44101 8.80796 3.41735 8.7885L2.54417 7.91513Z" fill="url(#paint16_linear)"/>
<path d="M3.13107 9.52989C3.01663 9.58921 2.87548 9.54458 2.81616 9.42995L2.17052 8.1856C2.11121 8.07096 2.15584 7.93001 2.27047 7.87069C2.38491 7.81118 2.52605 7.85581 2.58537 7.97045L3.23101 9.2148C3.29033 9.32943 3.2457 9.47039 3.13107 9.52989Z" fill="url(#paint17_linear)"/>
<path d="M19.356 11.7636C19.2303 11.7344 19.1521 11.6089 19.1813 11.4832L19.4983 10.1177C19.5275 9.99204 19.6532 9.91365 19.7789 9.94283C19.9046 9.97202 19.9828 10.0977 19.9536 10.2234L19.6364 11.5889C19.6072 11.7146 19.4817 11.7928 19.356 11.7636Z" fill="url(#paint18_linear)"/>
<path d="M9.74751 4.54713C9.71642 4.51127 9.67446 4.48419 9.62468 4.47255C9.49898 4.44337 9.37329 4.52157 9.3441 4.64727L9.0271 6.01293C9.00746 6.09743 9.03702 6.18097 9.09634 6.23628L9.96971 7.10947C10.0008 7.14533 10.0428 7.17241 10.0925 7.18405C10.2182 7.21323 10.3437 7.13503 10.3729 7.00934L10.6901 5.64367C10.7098 5.55917 10.68 5.47563 10.6207 5.42032L9.74751 4.54713Z" fill="url(#paint19_linear)"/>
<path d="M9.20182 6.29332C9.07612 6.26413 8.99792 6.13863 9.0271 6.01294L9.34411 4.64727C9.37329 4.52157 9.49899 4.44337 9.62468 4.47255C9.75038 4.50174 9.82858 4.62724 9.7994 4.75293L9.4822 6.1186C9.45302 6.2443 9.32751 6.3225 9.20182 6.29332Z" fill="url(#paint20_linear)"/>
<path d="M17.432 13.9238C17.5016 13.8153 17.6462 13.7835 17.7547 13.8531L18.9358 14.6082C19.0445 14.6778 19.0763 14.8224 19.0067 14.9309C18.9371 15.0397 18.7927 15.0715 18.684 15.0019L17.503 14.2466C17.3944 14.1771 17.3626 14.0326 17.432 13.9238Z" fill="url(#paint21_radial)"/>
<path d="M10.3088 13.0652C10.2886 13.0411 10.2636 13.0205 10.2337 13.0058C10.1179 12.9486 9.97773 12.9959 9.92051 13.1115L9.2989 14.3681C9.25255 14.4615 9.27563 14.5704 9.34697 14.6391L10.2203 15.5125C10.2404 15.5365 10.2655 15.5571 10.2955 15.5718C10.4111 15.629 10.5513 15.5817 10.6085 15.4661L11.2303 14.2096C11.2764 14.1161 11.2536 14.0072 11.182 13.9385L10.3088 13.0652Z" fill="url(#paint22_linear)"/>
<path d="M14.1754 15.2094C14.1054 15.1381 13.9952 15.1163 13.9017 15.1648C13.7871 15.2243 13.7424 15.3652 13.8019 15.4799L14.4474 16.7242C14.4625 16.753 14.4827 16.7774 14.5061 16.7969L15.3795 17.6703C15.4495 17.7416 15.5598 17.7634 15.6532 17.7149C15.7677 17.6554 15.8125 17.5144 15.753 17.3998L15.1075 16.1555C15.0925 16.1265 15.0722 16.1022 15.0486 16.0828L14.1754 15.2094Z" fill="url(#paint23_linear)"/>
<path d="M11.9837 16.2258C11.9701 16.2108 11.9553 16.1968 11.9373 16.1854L10.7563 15.4301C10.6478 15.3607 10.5032 15.3923 10.4338 15.501C10.371 15.5993 10.3912 15.7259 10.4757 15.8009L11.3491 16.6743C11.3626 16.6891 11.3775 16.7031 11.3955 16.7145L12.5763 17.4698C12.685 17.5394 12.8296 17.5076 12.899 17.3989C12.9618 17.3008 12.9414 17.174 12.857 17.099L11.9837 16.2258Z" fill="url(#paint24_linear)"/>
<path d="M9.40456 14.6811C9.28897 14.6239 9.24167 14.4837 9.29889 14.3679L9.9205 13.1115C9.97772 12.9959 10.1179 12.9484 10.2337 13.0057C10.3493 13.0629 10.3966 13.2031 10.3394 13.3187L9.71756 14.5752C9.66053 14.6908 9.52034 14.7383 9.40456 14.6811Z" fill="url(#paint25_linear)"/>
<path d="M14.7625 16.824C14.6479 16.8835 14.5069 16.8387 14.4474 16.7242L13.802 15.4799C13.7425 15.3652 13.7873 15.2243 13.9017 15.1648C14.0163 15.1055 14.1573 15.1501 14.2168 15.2647L14.8623 16.5091C14.9218 16.6235 14.8769 16.7647 14.7625 16.824Z" fill="url(#paint26_linear)"/>
<path d="M10.4337 15.501C10.5032 15.3923 10.6477 15.3605 10.7563 15.4301L11.9373 16.1854C12.046 16.255 12.0779 16.3994 12.0082 16.5081C11.9388 16.6168 11.7942 16.6487 11.6855 16.5791L10.5045 15.8238C10.3958 15.7541 10.3641 15.6098 10.4337 15.501Z" fill="url(#paint27_radial)"/>
<path d="M22.3066 8.22088C22.2931 8.20581 22.2782 8.19189 22.2603 8.18045L21.0794 7.42514C20.9707 7.35571 20.8261 7.38737 20.7567 7.49609C20.694 7.59432 20.7144 7.72097 20.7987 7.79592L21.672 8.6693C21.6856 8.68418 21.7005 8.6981 21.7184 8.70954L22.8994 9.46485C23.0079 9.53447 23.1525 9.50262 23.222 9.3939C23.2847 9.29586 23.2645 9.16903 23.18 9.09407L22.3066 8.22088Z" fill="url(#paint28_linear)"/>
<path d="M20.7565 7.49609C20.8262 7.38756 20.9707 7.35571 21.0793 7.42513L22.2603 8.18044C22.369 8.25006 22.4009 8.39445 22.3312 8.50317C22.2618 8.61188 22.1172 8.64374 22.0085 8.57412L20.8275 7.81881C20.719 7.74938 20.6871 7.60481 20.7565 7.49609Z" fill="url(#paint29_radial)"/>
<path d="M5.0846 5.1302C5.06438 5.10617 5.0394 5.08557 5.00945 5.07088C4.89367 5.01366 4.75348 5.06096 4.69645 5.17655L4.07466 6.43311C4.02831 6.52657 4.05139 6.63548 4.12272 6.70414L4.9961 7.57752C5.01613 7.60155 5.0413 7.62215 5.07125 7.63684C5.18683 7.69406 5.32702 7.64676 5.38424 7.53117L6.00604 6.27461C6.0522 6.18115 6.02931 6.07224 5.95797 6.00357L5.0846 5.1302Z" fill="url(#paint30_linear)"/>
<path d="M7.27483 7.5308C7.2611 7.51593 7.24622 7.502 7.22848 7.49056L6.04746 6.73525C5.93874 6.66563 5.79416 6.69748 5.72473 6.8062C5.66198 6.90424 5.68239 7.03108 5.76669 7.10604L6.64007 7.97922C6.65361 7.99429 6.66868 8.00821 6.68642 8.01966L7.86744 8.77497C7.97616 8.84439 8.12055 8.81273 8.19017 8.70401C8.25292 8.60579 8.23251 8.47914 8.14801 8.40418L7.27483 7.5308Z" fill="url(#paint31_linear)"/>
<path d="M4.18038 6.7461C4.06479 6.68888 4.01749 6.54869 4.07471 6.43311L4.69651 5.17655C4.75354 5.06096 4.89373 5.01366 5.0095 5.07088C5.12509 5.12791 5.17239 5.2681 5.11517 5.38388L4.49356 6.64024C4.43634 6.75602 4.29615 6.80332 4.18038 6.7461Z" fill="url(#paint32_linear)"/>
<path d="M5.72473 6.8062C5.79415 6.69748 5.93873 6.66563 6.04745 6.73525L7.22848 7.49056C7.33701 7.55999 7.36886 7.70457 7.29924 7.81329C7.22982 7.92181 7.08524 7.95367 6.97671 7.88405L5.79568 7.12893C5.68696 7.05931 5.6553 6.91473 5.72473 6.8062Z" fill="url(#paint33_radial)"/>
<path d="M23.151 11.3365C23.2067 11.4529 23.1577 11.5925 23.0413 11.6482L21.7773 12.2543C21.661 12.31 21.5214 12.261 21.4655 12.1447C21.4098 12.0283 21.4588 11.8887 21.5752 11.8328L22.8393 11.2269C22.9557 11.171 23.0951 11.2202 23.151 11.3365Z" fill="url(#paint34_linear)"/>
<path d="M14.6662 13.0731C14.5983 13.0018 14.4903 12.9779 14.3968 13.0227L13.1326 13.6289C13.0163 13.6846 12.9673 13.8242 13.023 13.9406C13.0377 13.9713 13.0585 13.9968 13.0827 14.0174L13.9561 14.8908C14.024 14.9622 14.1319 14.986 14.2256 14.941L15.4896 14.335C15.6059 14.2791 15.6549 14.1397 15.5992 14.0232C15.5846 13.9926 15.5638 13.9671 15.5395 13.9465L14.6662 13.0731Z" fill="url(#paint35_linear)"/>
<path d="M14.674 13.0121C14.7297 13.1285 14.6807 13.2681 14.5643 13.3238L13.3002 13.9299C13.1838 13.9858 13.0444 13.9366 12.9885 13.8203C12.9328 13.7039 12.9818 13.5643 13.0982 13.5086L14.3622 12.9025C14.4785 12.8468 14.6181 12.8958 14.674 13.0121Z" fill="url(#paint36_linear)"/>
<path d="M13.4981 4.67303C13.4302 4.60169 13.3223 4.57785 13.2286 4.62267L11.9646 5.22883C11.8483 5.28452 11.7993 5.42414 11.8549 5.54049C11.8696 5.57101 11.8904 5.59676 11.9146 5.61735L12.788 6.49054C12.8559 6.56187 12.9639 6.58572 13.0573 6.54089L14.3215 5.93474C14.4379 5.87904 14.4869 5.73942 14.4312 5.62308C14.4165 5.59256 14.3957 5.56681 14.3715 5.54621L13.4981 4.67303Z" fill="url(#paint37_linear)"/>
<path d="M13.5405 4.73233C13.5962 4.84868 13.5471 4.9883 13.4308 5.04399L12.1666 5.65015C12.0504 5.70584 11.9108 5.65682 11.8549 5.54048C11.7993 5.42413 11.8483 5.28451 11.9646 5.22882L13.2286 4.62266C13.345 4.56697 13.4846 4.61599 13.5405 4.73233Z" fill="url(#paint38_linear)"/>
<path d="M2.9159 11.7344C2.89587 11.7104 2.87069 11.6898 2.84075 11.6751C2.72516 11.6179 2.58497 11.6652 2.52775 11.7807L1.90596 13.0373C1.85961 13.1308 1.88269 13.2397 1.95402 13.3085L2.8274 14.1817C2.84762 14.2057 2.8726 14.2263 2.90255 14.2412C3.01813 14.2983 3.15832 14.2509 3.21554 14.1354L3.83734 12.8788C3.88369 12.7853 3.86061 12.6764 3.78927 12.6078L2.9159 11.7344Z" fill="url(#paint39_linear)"/>
<path d="M6.12028 13.6664C6.05028 13.595 5.94004 13.5733 5.84658 13.6217C5.73214 13.6812 5.6875 13.8222 5.74682 13.9368L6.39246 15.1812C6.40734 15.21 6.42755 15.2344 6.45121 15.2538L7.32439 16.127C7.39439 16.1985 7.50482 16.2201 7.59809 16.1717C7.71272 16.1123 7.75735 15.9712 7.69785 15.8568L7.0524 14.6124C7.03752 14.5834 7.01731 14.559 6.99365 14.5395L6.12028 13.6664Z" fill="url(#paint40_linear)"/>
<path d="M5.51054 10.264C5.47926 10.228 5.4373 10.2009 5.38752 10.1895C5.26183 10.1603 5.13632 10.2385 5.10714 10.3642L4.78995 11.7296C4.77049 11.8141 4.80006 11.8979 4.85938 11.953L5.73256 12.8264C5.76384 12.8622 5.8058 12.8893 5.85558 12.9009C5.98128 12.9301 6.10678 12.8517 6.13596 12.726L6.45316 11.3606C6.47261 11.2761 6.44305 11.1923 6.38373 11.1372L5.51054 10.264Z" fill="url(#paint41_linear)"/>
<path d="M4.59099 14.8951C4.57744 14.8802 4.56238 14.8661 4.54464 14.8546L3.36361 14.0995C3.25489 14.0299 3.1105 14.0617 3.04088 14.1703C2.97813 14.2685 2.99854 14.3952 3.08304 14.4703L3.95622 15.3435C3.96976 15.3584 3.98483 15.3725 4.00257 15.3839L5.1836 16.139C5.29232 16.2087 5.43689 16.1768 5.50632 16.0683C5.56907 15.9701 5.54867 15.8434 5.46417 15.7683L4.59099 14.8951Z" fill="url(#paint42_linear)"/>
<path d="M8.71751 11.5235C8.64961 11.4523 8.54165 11.4283 8.448 11.4733L7.184 12.0793C7.06765 12.1351 7.01844 12.2748 7.07433 12.3911C7.08901 12.4216 7.10961 12.4472 7.13403 12.468L8.00721 13.3412C8.07531 13.4125 8.18307 13.4363 8.27672 13.3915L9.54073 12.7854C9.65707 12.7297 9.70628 12.59 9.6504 12.4737C9.6359 12.4432 9.61511 12.4174 9.5907 12.3968L8.71751 11.5235Z" fill="url(#paint43_linear)"/>
<path d="M2.01183 13.3503C1.89624 13.2931 1.84875 13.1529 1.90597 13.0373L2.52777 11.7808C2.58499 11.6652 2.72518 11.6179 2.84076 11.6751C2.95654 11.7323 3.00384 11.8725 2.94662 11.9881L2.32482 13.2445C2.2676 13.3602 2.12741 13.4075 2.01183 13.3503Z" fill="url(#paint44_linear)"/>
<path d="M6.70737 15.2809C6.59274 15.3404 6.45178 15.2956 6.39246 15.1812L5.74682 13.9368C5.6875 13.8222 5.73214 13.6812 5.84658 13.6217C5.96121 13.5624 6.10216 13.607 6.16167 13.7215L6.80712 14.966C6.86663 15.0805 6.82181 15.2216 6.70737 15.2809Z" fill="url(#paint45_linear)"/>
<path d="M4.96482 12.01C4.83912 11.9808 4.76073 11.8553 4.78991 11.7296L5.1071 10.3642C5.13629 10.2385 5.26179 10.1601 5.38748 10.1893C5.51318 10.2184 5.59138 10.3441 5.5622 10.4698L5.2452 11.8353C5.21601 11.961 5.09051 12.0392 4.96482 12.01Z" fill="url(#paint46_linear)"/>
<path d="M3.04089 14.1703C3.11032 14.0617 3.25489 14.0299 3.36361 14.0995L4.54464 14.8546C4.65317 14.9243 4.68502 15.0688 4.61541 15.1774C4.54598 15.2861 4.4014 15.3179 4.29287 15.2483L3.11184 14.493C3.00312 14.4236 2.97146 14.279 3.04089 14.1703Z" fill="url(#paint47_radial)"/>
<path d="M8.75973 11.583C8.81561 11.6993 8.7664 11.8389 8.65005 11.8946L7.38605 12.5008C7.26971 12.5565 7.13009 12.5075 7.07439 12.3911C7.01851 12.2748 7.06772 12.1351 7.18388 12.0793L8.44807 11.4733C8.56441 11.4174 8.70403 11.4666 8.75973 11.583Z" fill="url(#paint48_linear)"/>
</g>
<defs>
<radialGradient id="paint0_radial" cx="0" cy="0" r="1" gradientUnits="userSpaceOnUse" gradientTransform="translate(10.7778 11.5986) rotate(0.584455) scale(14.2961 10.3114)">
<stop stop-color="#FFB92D"/>
<stop offset="0.528" stop-color="#FFB72B"/>
<stop offset="0.7181" stop-color="#FDB224"/>
<stop offset="0.8537" stop-color="#FAA919"/>
<stop offset="0.9626" stop-color="#F79B08"/>
<stop offset="1" stop-color="#F59500"/>
</radialGradient>
<linearGradient id="paint1_linear" x1="15.1935" y1="19.7207" x2="10.7151" y2="6.11744" gradientUnits="userSpaceOnUse">
<stop stop-color="#BE3F45" stop-opacity="0"/>
<stop offset="1" stop-color="#BE3F45"/>
</linearGradient>
<linearGradient id="paint2_linear" x1="21.1394" y1="17.7536" x2="16.5742" y2="13.1884" gradientUnits="userSpaceOnUse">
<stop stop-color="#BE3F45" stop-opacity="0"/>
<stop offset="1" stop-color="#BE3F45"/>
</linearGradient>
<linearGradient id="paint3_linear" x1="22.8484" y1="16.8528" x2="17.7169" y2="12.88" gradientUnits="userSpaceOnUse">
<stop stop-color="#BE3F45" stop-opacity="0"/>
<stop offset="1" stop-color="#BE3F45"/>
</linearGradient>
<radialGradient id="paint4_radial" cx="0" cy="0" r="1" gradientUnits="userSpaceOnUse" gradientTransform="translate(11.3259 8.61717) scale(17.9399 12.1453)">
<stop stop-color="#8C6239"/>
<stop offset="0.2209" stop-color="#885E36"/>
<stop offset="0.4619" stop-color="#7A532E"/>
<stop offset="0.7124" stop-color="#653F21"/>
<stop offset="0.9681" stop-color="#46250E"/>
<stop offset="1" stop-color="#42210B"/>
</radialGradient>
<linearGradient id="paint5_linear" x1="17.7878" y1="13.0003" x2="16.6196" y2="12.3577" gradientUnits="userSpaceOnUse">
<stop stop-color="#3E2E28" stop-opacity="0"/>
<stop offset="1" stop-color="#503837"/>
</linearGradient>
<linearGradient id="paint6_linear" x1="21.6834" y1="15.22" x2="20.8202" y2="14.3568" gradientUnits="userSpaceOnUse">
<stop stop-color="#3E2E28" stop-opacity="0"/>
<stop offset="1" stop-color="#503837"/>
</linearGradient>
<linearGradient id="paint7_linear" x1="20.3263" y1="11.6122" x2="19.2413" y2="10.5272" gradientUnits="userSpaceOnUse">
<stop stop-color="#3E2E28" stop-opacity="0"/>
<stop offset="1" stop-color="#503837"/>
</linearGradient>
<linearGradient id="paint8_linear" x1="18.94" y1="15.6144" x2="18.5896" y2="14.6701" gradientUnits="userSpaceOnUse">
<stop stop-color="#3E2E28" stop-opacity="0"/>
<stop offset="1" stop-color="#503837"/>
</linearGradient>
<linearGradient id="paint9_linear" x1="22.9332" y1="12.6034" x2="22.573" y2="11.7662" gradientUnits="userSpaceOnUse">
<stop stop-color="#3E2E28" stop-opacity="0"/>
<stop offset="1" stop-color="#503837"/>
</linearGradient>
<linearGradient id="paint10_linear" x1="16.2731" y1="12.2663" x2="17.3622" y2="12.2663" gradientUnits="userSpaceOnUse">
<stop stop-color="#ACFCD9"/>
<stop offset="0.9655" stop-color="#53D6BE"/>
</linearGradient>
<linearGradient id="paint11_linear" x1="19.7099" y1="7.87463" x2="18.5416" y2="7.23211" gradientUnits="userSpaceOnUse">
<stop stop-color="#3E2E28" stop-opacity="0"/>
<stop offset="1" stop-color="#503837"/>
</linearGradient>
<linearGradient id="paint12_linear" x1="18.1952" y1="7.14061" x2="19.2843" y2="7.14061" gradientUnits="userSpaceOnUse">
<stop stop-color="#ACFCD9"/>
<stop offset="0.9655" stop-color="#53D6BE"/>
</linearGradient>
<linearGradient id="paint13_linear" x1="20.1118" y1="14.2049" x2="21.2247" y2="14.2049" gradientUnits="userSpaceOnUse">
<stop stop-color="#FF4C54"/>
<stop offset="0.2336" stop-color="#FA4B53"/>
<stop offset="0.496" stop-color="#ED4850"/>
<stop offset="0.7713" stop-color="#D6444B"/>
<stop offset="1" stop-color="#BE3F45"/>
</linearGradient>
<linearGradient id="paint14_linear" x1="16.9736" y1="6.16681" x2="16.1104" y2="5.30358" gradientUnits="userSpaceOnUse">
<stop stop-color="#3E2E28" stop-opacity="0"/>
<stop offset="1" stop-color="#503837"/>
</linearGradient>
<linearGradient id="paint15_linear" x1="15.4021" y1="5.1517" x2="16.515" y2="5.1517" gradientUnits="userSpaceOnUse">
<stop stop-color="#FF4C54"/>
<stop offset="0.2336" stop-color="#FA4B53"/>
<stop offset="0.496" stop-color="#ED4850"/>
<stop offset="0.7713" stop-color="#D6444B"/>
<stop offset="1" stop-color="#BE3F45"/>
</linearGradient>
<linearGradient id="paint16_linear" x1="3.71587" y1="9.71533" x2="2.85264" y2="8.85211" gradientUnits="userSpaceOnUse">
<stop stop-color="#3E2E28" stop-opacity="0"/>
<stop offset="1" stop-color="#503837"/>
</linearGradient>
<linearGradient id="paint17_linear" x1="2.14432" y1="8.70024" x2="3.25723" y2="8.70024" gradientUnits="userSpaceOnUse">
<stop stop-color="#FF4C54"/>
<stop offset="0.2336" stop-color="#FA4B53"/>
<stop offset="0.496" stop-color="#ED4850"/>
<stop offset="0.7713" stop-color="#D6444B"/>
<stop offset="1" stop-color="#BE3F45"/>
</linearGradient>
<linearGradient id="paint18_linear" x1="19.1752" y1="10.8533" x2="19.9597" y2="10.8533" gradientUnits="userSpaceOnUse">
<stop stop-color="#FAA4BD"/>
<stop offset="0.1419" stop-color="#F49DBA"/>
<stop offset="0.3557" stop-color="#E388B3"/>
<stop offset="0.615" stop-color="#C766A6"/>
<stop offset="0.9074" stop-color="#A03795"/>
<stop offset="1" stop-color="#93278F"/>
</linearGradient>
<linearGradient id="paint19_linear" x1="10.1721" y1="6.14179" x2="9.08709" y2="5.05681" gradientUnits="userSpaceOnUse">
<stop stop-color="#3E2E28" stop-opacity="0"/>
<stop offset="1" stop-color="#503837"/>
</linearGradient>
<linearGradient id="paint20_linear" x1="9.02096" y1="5.38293" x2="9.80546" y2="5.38293" gradientUnits="userSpaceOnUse">
<stop stop-color="#FAA4BD"/>
<stop offset="0.1419" stop-color="#F49DBA"/>
<stop offset="0.3557" stop-color="#E388B3"/>
<stop offset="0.615" stop-color="#C766A6"/>
<stop offset="0.9074" stop-color="#A03795"/>
<stop offset="1" stop-color="#93278F"/>
</linearGradient>
<radialGradient id="paint21_radial" cx="0" cy="0" r="1" gradientUnits="userSpaceOnUse" gradientTransform="translate(18.2195 14.4275) scale(0.725591)">
<stop stop-color="#FFF465"/>
<stop offset="0.3428" stop-color="#FFF463"/>
<stop offset="0.5215" stop-color="#FFF35B"/>
<stop offset="0.6623" stop-color="#FFF14D"/>
<stop offset="0.7832" stop-color="#FFEE3A"/>
<stop offset="0.8915" stop-color="#FFEB22"/>
<stop offset="0.9894" stop-color="#FFE704"/>
<stop offset="1" stop-color="#FFE600"/>
</radialGradient>
<linearGradient id="paint22_linear" x1="10.7893" y1="14.5774" x2="9.62108" y2="13.9349" gradientUnits="userSpaceOnUse">
<stop stop-color="#3E2E28" stop-opacity="0"/>
<stop offset="1" stop-color="#503837"/>
</linearGradient>
<linearGradient id="paint23_linear" x1="15.3472" y1="17.0095" x2="14.4839" y2="16.1463" gradientUnits="userSpaceOnUse">
<stop stop-color="#3E2E28" stop-opacity="0"/>
<stop offset="1" stop-color="#503837"/>
</linearGradient>
<linearGradient id="paint24_linear" x1="11.9416" y1="17.1915" x2="11.5911" y2="16.2472" gradientUnits="userSpaceOnUse">
<stop stop-color="#3E2E28" stop-opacity="0"/>
<stop offset="1" stop-color="#503837"/>
</linearGradient>
<linearGradient id="paint25_linear" x1="9.27455" y1="13.8434" x2="10.3637" y2="13.8434" gradientUnits="userSpaceOnUse">
<stop stop-color="#ACFCD9"/>
<stop offset="0.9655" stop-color="#53D6BE"/>
</linearGradient>
<linearGradient id="paint26_linear" x1="13.7756" y1="15.9944" x2="14.8886" y2="15.9944" gradientUnits="userSpaceOnUse">
<stop stop-color="#FF4C54"/>
<stop offset="0.2336" stop-color="#FA4B53"/>
<stop offset="0.496" stop-color="#ED4850"/>
<stop offset="0.7713" stop-color="#D6444B"/>
<stop offset="1" stop-color="#BE3F45"/>
</linearGradient>
<radialGradient id="paint27_radial" cx="0" cy="0" r="1" gradientUnits="userSpaceOnUse" gradientTransform="translate(11.2209 16.0046) scale(0.725592)">
<stop stop-color="#FFF465"/>
<stop offset="0.3428" stop-color="#FFF463"/>
<stop offset="0.5215" stop-color="#FFF35B"/>
<stop offset="0.6623" stop-color="#FFF14D"/>
<stop offset="0.7832" stop-color="#FFEE3A"/>
<stop offset="0.8915" stop-color="#FFEB22"/>
<stop offset="0.9894" stop-color="#FFE704"/>
<stop offset="1" stop-color="#FFE600"/>
</radialGradient>
<linearGradient id="paint28_linear" x1="22.2646" y1="9.18658" x2="21.9141" y2="8.24226" gradientUnits="userSpaceOnUse">
<stop stop-color="#3E2E28" stop-opacity="0"/>
<stop offset="1" stop-color="#503837"/>
</linearGradient>
<radialGradient id="paint29_radial" cx="0" cy="0" r="1" gradientUnits="userSpaceOnUse" gradientTransform="translate(21.544 7.99966) scale(0.725593)">
<stop stop-color="#FFF465"/>
<stop offset="0.3428" stop-color="#FFF463"/>
<stop offset="0.5215" stop-color="#FFF35B"/>
<stop offset="0.6623" stop-color="#FFF14D"/>
<stop offset="0.7832" stop-color="#FFEE3A"/>
<stop offset="0.8915" stop-color="#FFEB22"/>
<stop offset="0.9894" stop-color="#FFE704"/>
<stop offset="1" stop-color="#FFE600"/>
</radialGradient>
<linearGradient id="paint30_linear" x1="5.56507" y1="6.64249" x2="4.39684" y2="5.99997" gradientUnits="userSpaceOnUse">
<stop stop-color="#3E2E28" stop-opacity="0"/>
<stop offset="1" stop-color="#503837"/>
</linearGradient>
<linearGradient id="paint31_linear" x1="7.23263" y1="8.49659" x2="6.88217" y2="7.55227" gradientUnits="userSpaceOnUse">
<stop stop-color="#3E2E28" stop-opacity="0"/>
<stop offset="1" stop-color="#503837"/>
</linearGradient>
<linearGradient id="paint32_linear" x1="4.05038" y1="5.90847" x2="5.13951" y2="5.90847" gradientUnits="userSpaceOnUse">
<stop stop-color="#ACFCD9"/>
<stop offset="0.9655" stop-color="#53D6BE"/>
</linearGradient>
<radialGradient id="paint33_radial" cx="0" cy="0" r="1" gradientUnits="userSpaceOnUse" gradientTransform="translate(6.51204 7.30968) scale(0.725594)">
<stop stop-color="#FFF465"/>
<stop offset="0.3428" stop-color="#FFF463"/>
<stop offset="0.5215" stop-color="#FFF35B"/>
<stop offset="0.6623" stop-color="#FFF14D"/>
<stop offset="0.7832" stop-color="#FFEE3A"/>
<stop offset="0.8915" stop-color="#FFEB22"/>
<stop offset="0.9894" stop-color="#FFE704"/>
<stop offset="1" stop-color="#FFE600"/>
</radialGradient>
<linearGradient id="paint34_linear" x1="21.4425" y1="11.7405" x2="23.174" y2="11.7405" gradientUnits="userSpaceOnUse">
<stop stop-color="#CFFFB4"/>
<stop offset="1" stop-color="#8EE388"/>
</linearGradient>
<linearGradient id="paint35_linear" x1="14.4907" y1="14.3994" x2="14.1305" y2="13.5622" gradientUnits="userSpaceOnUse">
<stop stop-color="#3E2E28" stop-opacity="0"/>
<stop offset="1" stop-color="#503837"/>
</linearGradient>
<linearGradient id="paint36_linear" x1="12.9655" y1="13.4162" x2="14.697" y2="13.4162" gradientUnits="userSpaceOnUse">
<stop stop-color="#CFFFB4"/>
<stop offset="1" stop-color="#8EE388"/>
</linearGradient>
<linearGradient id="paint37_linear" x1="13.3227" y1="5.99923" x2="12.9625" y2="5.16201" gradientUnits="userSpaceOnUse">
<stop stop-color="#3E2E28" stop-opacity="0"/>
<stop offset="1" stop-color="#503837"/>
</linearGradient>
<linearGradient id="paint38_linear" x1="11.8319" y1="5.13635" x2="13.5634" y2="5.13635" gradientUnits="userSpaceOnUse">
<stop stop-color="#CFFFB4"/>
<stop offset="1" stop-color="#8EE388"/>
</linearGradient>
<linearGradient id="paint39_linear" x1="3.39648" y1="13.2467" x2="2.22826" y2="12.6042" gradientUnits="userSpaceOnUse">
<stop stop-color="#3E2E28" stop-opacity="0"/>
<stop offset="1" stop-color="#503837"/>
</linearGradient>
<linearGradient id="paint40_linear" x1="7.29211" y1="15.4664" x2="6.42888" y2="14.6032" gradientUnits="userSpaceOnUse">
<stop stop-color="#3E2E28" stop-opacity="0"/>
<stop offset="1" stop-color="#503837"/>
</linearGradient>
<linearGradient id="paint41_linear" x1="5.93504" y1="11.8586" x2="4.85006" y2="10.7736" gradientUnits="userSpaceOnUse">
<stop stop-color="#3E2E28" stop-opacity="0"/>
<stop offset="1" stop-color="#503837"/>
</linearGradient>
<linearGradient id="paint42_linear" x1="4.54882" y1="15.8608" x2="4.19835" y2="14.9165" gradientUnits="userSpaceOnUse">
<stop stop-color="#3E2E28" stop-opacity="0"/>
<stop offset="1" stop-color="#503837"/>
</linearGradient>
<linearGradient id="paint43_linear" x1="8.54198" y1="12.8498" x2="8.18178" y2="12.0126" gradientUnits="userSpaceOnUse">
<stop stop-color="#3E2E28" stop-opacity="0"/>
<stop offset="1" stop-color="#503837"/>
</linearGradient>
<linearGradient id="paint44_linear" x1="1.88175" y1="12.5127" x2="2.97088" y2="12.5127" gradientUnits="userSpaceOnUse">
<stop stop-color="#ACFCD9"/>
<stop offset="0.9655" stop-color="#53D6BE"/>
</linearGradient>
<linearGradient id="paint45_linear" x1="5.72056" y1="14.4513" x2="6.83348" y2="14.4513" gradientUnits="userSpaceOnUse">
<stop stop-color="#FF4C54"/>
<stop offset="0.2336" stop-color="#FA4B53"/>
<stop offset="0.496" stop-color="#ED4850"/>
<stop offset="0.7713" stop-color="#D6444B"/>
<stop offset="1" stop-color="#BE3F45"/>
</linearGradient>
<linearGradient id="paint46_linear" x1="4.78389" y1="11.0997" x2="5.56838" y2="11.0997" gradientUnits="userSpaceOnUse">
<stop stop-color="#FAA4BD"/>
<stop offset="0.1419" stop-color="#F49DBA"/>
<stop offset="0.3557" stop-color="#E388B3"/>
<stop offset="0.615" stop-color="#C766A6"/>
<stop offset="0.9074" stop-color="#A03795"/>
<stop offset="1" stop-color="#93278F"/>
</linearGradient>
<radialGradient id="paint47_radial" cx="0" cy="0" r="1" gradientUnits="userSpaceOnUse" gradientTransform="translate(3.82823 14.6739) scale(0.725594)">
<stop stop-color="#FFF465"/>
<stop offset="0.3428" stop-color="#FFF463"/>
<stop offset="0.5215" stop-color="#FFF35B"/>
<stop offset="0.6623" stop-color="#FFF14D"/>
<stop offset="0.7832" stop-color="#FFEE3A"/>
<stop offset="0.8915" stop-color="#FFEB22"/>
<stop offset="0.9894" stop-color="#FFE704"/>
<stop offset="1" stop-color="#FFE600"/>
</radialGradient>
<linearGradient id="paint48_linear" x1="7.05131" y1="11.987" x2="8.78279" y2="11.987" gradientUnits="userSpaceOnUse">
<stop stop-color="#CFFFB4"/>
<stop offset="1" stop-color="#8EE388"/>
</linearGradient>
<clipPath id="clip0">
<rect width="25" height="25" fill="white"/>
</clipPath>
</defs>
</svg>
