<svg width="25" height="25" viewBox="0 0 25 25" fill="none" xmlns="http://www.w3.org/2000/svg">
<g clip-path="url(#clip0)">
<path d="M12.3491 8.30169C13.2103 8.30169 13.9084 7.60355 13.9084 6.74234C13.9084 5.88113 13.2103 5.18298 12.3491 5.18298C11.4879 5.18298 10.7897 5.88113 10.7897 6.74234C10.7897 7.60355 11.4879 8.30169 12.3491 8.30169Z" fill="#AB2931"/>
<path d="M10.5529 0.672533C10.6217 0.60377 10.7372 0.618157 10.7874 0.701004C11.1459 1.2922 12.3137 3.50795 10.7528 5.06876C9.19202 6.62957 6.97627 5.46187 6.38507 5.10337C6.30227 5.05317 6.28784 4.93762 6.3566 4.86881C6.77184 4.45327 7.47778 4.24658 7.79996 4.17002C7.87401 4.15241 7.90177 4.06232 7.85172 4.00533C6.87063 2.88762 6.95761 1.78702 7.01339 1.45286C7.02395 1.38954 7.0735 1.33999 7.13688 1.32937C7.47104 1.27359 8.57164 1.18662 9.68935 2.1677C9.74634 2.21775 9.83648 2.18999 9.85404 2.11594C9.93065 1.79366 10.1373 1.08772 10.5529 0.672533Z" fill="#35B24D"/>
<path d="M10.7874 0.700957C10.7372 0.618161 10.6217 0.603724 10.5529 0.672487C10.1373 1.08773 9.93065 1.79366 9.85409 2.11585C10.2126 2.70704 10.2687 3.88139 9.24378 5.06871C8.91586 5.44859 8.54182 5.67566 8.15268 5.79618C8.98784 5.95116 9.9557 5.86585 10.7528 5.06871C12.3137 3.50795 11.1459 1.29215 10.7874 0.700957Z" fill="#2F9E44"/>
<path d="M12.3491 6.21228C13.2103 6.21228 13.9084 5.51413 13.9084 4.65292C13.9084 3.79171 13.2103 3.09357 12.3491 3.09357C11.4879 3.09357 10.7897 3.79171 10.7897 4.65292C10.7897 5.51413 11.4879 6.21228 12.3491 6.21228Z" fill="#CF323D"/>
<path d="M12.3491 3.09357C12.0754 3.09357 11.8182 3.16434 11.5946 3.28824C12.0744 3.55413 12.3994 4.06545 12.3994 4.65292C12.3994 5.24035 12.0744 5.75172 11.5946 6.01761C11.8182 6.1415 12.0754 6.21228 12.3491 6.21228C13.2103 6.21228 13.9084 5.51414 13.9084 4.65292C13.9084 3.79171 13.2103 3.09357 12.3491 3.09357Z" fill="#C22E39"/>
<path d="M13.9084 7.98059C14.7696 7.98059 15.4678 7.28244 15.4678 6.42123C15.4678 5.56003 14.7696 4.86188 13.9084 4.86188C13.0472 4.86188 12.3491 5.56003 12.3491 6.42123C12.3491 7.28244 13.0472 7.98059 13.9084 7.98059Z" fill="#CF323D"/>
<path d="M13.9085 4.86188C13.6347 4.86188 13.3776 4.93265 13.1539 5.05655C13.6338 5.32244 13.9588 5.83376 13.9588 6.42123C13.9588 7.00866 13.6338 7.52003 13.1539 7.78592C13.3776 7.90982 13.6347 7.98059 13.9085 7.98059C14.7697 7.98059 15.4678 7.28245 15.4678 6.42123C15.4678 5.56002 14.7697 4.86188 13.9085 4.86188Z" fill="#C22E39"/>
<path d="M10.7897 7.98059C11.6509 7.98059 12.3491 7.28244 12.3491 6.42123C12.3491 5.56003 11.6509 4.86188 10.7897 4.86188C9.92852 4.86188 9.23038 5.56003 9.23038 6.42123C9.23038 7.28244 9.92852 7.98059 10.7897 7.98059Z" fill="#CF323D"/>
<path d="M10.7897 4.86188C10.516 4.86188 10.2589 4.93265 10.0352 5.05655C10.515 5.32244 10.84 5.83376 10.84 6.42123C10.84 7.00866 10.515 7.52003 10.0352 7.78592C10.2589 7.90982 10.516 7.98059 10.7897 7.98059C11.651 7.98059 12.3491 7.28245 12.3491 6.42123C12.3491 5.56002 11.651 4.86188 10.7897 4.86188Z" fill="#C22E39"/>
<path d="M21.3529 21.4447H3.64713L4.83108 8.98708C4.89662 8.29744 5.45975 7.77164 6.13269 7.77164H18.8673C19.5403 7.77164 20.1034 8.29749 20.1689 8.98708L21.3529 21.4447Z" fill="#A35418"/>
<path d="M20.1689 8.98708C20.1034 8.29749 19.5402 7.77164 18.8673 7.77164H17.3582C18.0312 7.77164 18.5943 8.29749 18.6599 8.98708L19.8438 21.4447H21.3529L20.1689 8.98708Z" fill="#8C4815"/>
<path d="M20.5031 12.5013C20.1456 12.2128 19.7453 11.9611 19.0458 11.9611C17.4093 11.9611 17.4093 13.3408 15.7727 13.3408C14.1361 13.3408 14.1361 11.9611 12.4995 11.9611C10.8635 11.9611 10.8635 13.3408 9.22691 13.3408C7.59034 13.3408 7.59034 11.9611 5.95377 11.9611C5.25432 11.9611 4.85397 12.2128 4.49698 12.5013L4.83108 8.98703C4.89663 8.29744 5.45976 7.77164 6.13269 7.77164H18.8674C19.5403 7.77164 20.1035 8.29744 20.169 8.98703L20.5031 12.5013Z" fill="#FFEDC2"/>
<path d="M20.169 8.98703C20.1034 8.29744 19.5403 7.77164 18.8674 7.77164H17.3583C18.0312 7.77164 18.5944 8.29744 18.6599 8.98703L18.943 11.9638C18.9768 11.9626 19.0105 11.9611 19.0458 11.9611C19.7453 11.9611 20.1456 12.2128 20.5031 12.5013L20.169 8.98703Z" fill="#FAE3AC"/>
<path d="M22.1076 24.3712H2.89236C2.0589 24.3712 1.3833 23.6956 1.3833 22.8622V21.9567H23.6167V22.8622C23.6167 23.6956 22.9411 24.3712 22.1076 24.3712Z" fill="#E8E4DE"/>
<path d="M22.1077 21.9567V22.8622C22.1077 23.6956 21.4321 24.3712 20.5986 24.3712H22.1077C22.9411 24.3712 23.6167 23.6956 23.6167 22.8622V21.9567H22.1077Z" fill="#DBD7D1"/>
<path d="M23.994 22.5604H1.00604C0.450402 22.5604 0 22.11 0 21.5543V21.2525C0 21.1414 0.0900905 21.0513 0.201207 21.0513H24.7988C24.9099 21.0513 25 21.1414 25 21.2525V21.5543C25 22.11 24.5496 22.5604 23.994 22.5604Z" fill="#F3EFE9"/>
<path d="M24.7988 21.0513H23.2897C23.4008 21.0513 23.4909 21.1414 23.4909 21.2525V21.5543C23.4909 22.11 23.0405 22.5604 22.4849 22.5604H23.9939C24.5496 22.5604 25 22.11 25 21.5543V21.2525C25 21.1414 24.9099 21.0513 24.7988 21.0513Z" fill="#E8E4DE"/>
</g>
<defs>
<clipPath id="clip0">
<rect width="25" height="25" fill="white"/>
</clipPath>
</defs>
</svg>
